<svg width="118" height="38" viewBox="0 0 118 38" fill="none" xmlns="http://www.w3.org/2000/svg">
<path d="M8.75391 16.5586C8.19141 15.9727 7.59375 15.4336 6.96094 14.9414C6.32812 14.4258 5.69531 13.9219 5.0625 13.4297C4.45312 12.9141 3.85547 12.3867 3.26953 11.8477C2.68359 11.2852 2.14453 10.6758 1.65234 10.0195C1.13672 9.33984 0.726562 8.60156 0.421875 7.80469C0.140625 6.98437 0.09375 6.14062 0.28125 5.27344C0.46875 4.33594 0.925781 3.51562 1.65234 2.8125C2.37891 2.10938 3.16406 1.55859 4.00781 1.16016C4.92188 0.761719 5.84766 0.492188 6.78516 0.351562C7.72266 0.1875 8.67188 0.09375 9.63281 0.0703125C10.5938 0.0234375 11.5547 0.0234375 12.5156 0.0703125C13.5 0.09375 14.4727 0.0820313 15.4336 0.0351562C15.8789 0.0117188 16.207 0.140625 16.418 0.421875C16.6523 0.703125 16.7695 1.01953 16.7695 1.37109C16.7695 1.72266 16.6523 2.05078 16.418 2.35547C16.207 2.63672 15.8789 2.78906 15.4336 2.8125C14.7539 2.85938 14.0742 2.88281 13.3945 2.88281C12.7383 2.85938 12.0703 2.83594 11.3906 2.8125C10.4766 2.78906 9.55078 2.80078 8.61328 2.84766C7.69922 2.89453 6.79688 3.08203 5.90625 3.41016C5.60156 3.52734 5.27344 3.67969 4.92188 3.86719C4.57031 4.03125 4.24219 4.24219 3.9375 4.5C3.65625 4.75781 3.42188 5.03906 3.23438 5.34375C3.04688 5.64844 2.96484 5.97656 2.98828 6.32812C3.01172 6.65625 3.09375 6.98437 3.23438 7.3125C3.375 7.61719 3.55078 7.92188 3.76172 8.22656C3.99609 8.53125 4.24219 8.82422 4.5 9.10547C4.75781 9.38672 5.00391 9.64453 5.23828 9.87891C5.77734 10.418 6.33984 10.9102 6.92578 11.3555C7.51172 11.8008 8.09766 12.2578 8.68359 12.7266C9.29297 13.2188 9.90234 13.7695 10.5117 14.3789C11.1445 14.9648 11.6836 15.6094 12.1289 16.3125C12.5977 16.9922 12.9375 17.7188 13.1484 18.4922C13.3828 19.2656 13.418 20.0859 13.2539 20.9531C13.0898 21.7734 12.7734 22.4766 12.3047 23.0625C11.8594 23.625 11.3203 24.1406 10.6875 24.6094C10.0781 25.0547 9.42188 25.4648 8.71875 25.8398C8.03906 26.1914 7.38281 26.5547 6.75 26.9297C6.35156 27.1641 5.97656 27.2109 5.625 27.0703C5.29688 26.9297 5.03906 26.707 4.85156 26.4023C4.6875 26.0977 4.61719 25.7695 4.64062 25.418C4.6875 25.043 4.91016 24.7383 5.30859 24.5039C5.87109 24.1758 6.43359 23.8711 6.99609 23.5898C7.55859 23.3086 8.10938 22.9922 8.64844 22.6406C9.16406 22.3125 9.60938 21.9258 9.98438 21.4805C10.3828 21.0117 10.582 20.4727 10.582 19.8633C10.5586 19.2539 10.3594 18.668 9.98438 18.1055C9.63281 17.543 9.22266 17.0273 8.75391 16.5586ZM16.9805 22.8164C16.9805 21.8086 17.0508 20.7891 17.1914 19.7578C17.3555 18.5156 17.5195 17.2852 17.6836 16.0664C17.8477 14.8242 17.918 13.5703 17.8945 12.3047C17.8945 11.8594 18.0352 11.5195 18.3164 11.2852C18.5977 11.0508 18.9141 10.9336 19.2656 10.9336C19.6172 10.9336 19.9453 11.0508 20.25 11.2852C20.5547 11.5195 20.707 11.8594 20.707 12.3047C21.6211 12.2344 22.4883 12.1992 23.3086 12.1992C24.2461 12.2227 25.043 12.4922 25.6992 13.0078C26.3555 13.5234 26.8477 14.2148 27.1758 15.082C27.457 15.8789 27.6211 16.6992 27.668 17.543C27.7148 18.3867 27.75 19.2305 27.7734 20.0742C27.7969 21.2695 27.832 22.4648 27.8789 23.6602C27.9258 24.832 27.9492 26.0156 27.9492 27.2109C27.9492 27.6797 27.7969 28.0195 27.4922 28.2305C27.2109 28.4648 26.8945 28.582 26.543 28.582C26.2148 28.582 25.8984 28.4648 25.5938 28.2305C25.3125 28.0195 25.1719 27.6797 25.1719 27.2109C25.1719 26.0859 25.1484 24.9844 25.1016 23.9062C25.0781 22.8281 25.043 21.7266 24.9961 20.6016C24.9492 19.9922 24.9258 19.3711 24.9258 18.7383C24.9492 18.082 24.9023 17.4844 24.7852 16.9453C24.7148 16.6172 24.6445 16.3359 24.5742 16.1016C24.5039 15.8438 24.375 15.5977 24.1875 15.3633C24.1406 15.2695 24.0352 15.1875 23.8711 15.1172C23.7305 15.0469 23.6016 15.0117 23.4844 15.0117C23.1328 15.0117 22.8047 15.0352 22.5 15.082C22.1953 15.1289 21.8789 15.1992 21.5508 15.293C21.4102 15.3398 21.2695 15.3867 21.1289 15.4336C20.9883 15.4805 20.8594 15.5391 20.7422 15.6094C20.5078 16.4531 20.332 17.2617 20.2148 18.0352C20.1211 18.7852 20.0273 19.5469 19.9336 20.3203C19.8633 20.8828 19.8164 21.457 19.793 22.043C19.793 22.6055 19.7695 23.168 19.7227 23.7305C19.6992 24.293 19.6289 24.8555 19.5117 25.418C19.418 25.9805 19.2422 26.5195 18.9844 27.0352C18.7734 27.4336 18.4922 27.6562 18.1406 27.7031C17.7891 27.7734 17.4609 27.7148 17.1562 27.5273C16.875 27.3633 16.6523 27.1055 16.4883 26.7539C16.3477 26.4023 16.3711 26.0273 16.5586 25.6289C16.7695 25.207 16.8867 24.75 16.9102 24.2578C16.9336 23.7656 16.957 23.2852 16.9805 22.8164ZM33.8906 25.2422C33.0938 24.8906 32.4609 24.4102 31.9922 23.8008C31.5469 23.168 31.2305 22.4766 31.043 21.7266C30.8789 20.9766 30.832 20.2031 30.9023 19.4062C30.9727 18.5859 31.1367 17.8008 31.3945 17.0508C31.6055 16.4648 31.8398 15.8555 32.0977 15.2227C32.3789 14.5898 32.707 14.0039 33.082 13.4648C33.457 12.9258 33.9023 12.4688 34.418 12.0938C34.9336 11.6953 35.543 11.4375 36.2461 11.3203C36.9727 11.2031 37.6992 11.168 38.4258 11.2148C39.1758 11.2383 39.9141 11.3086 40.6406 11.4258C40.9688 11.4727 41.2852 11.5547 41.5898 11.6719C41.8945 11.7656 42.1992 11.8711 42.5039 11.9883C42.5273 11.6367 42.6797 11.3438 42.9609 11.1094C43.2656 10.875 43.582 10.7578 43.9102 10.7578C44.3086 10.7578 44.625 10.8984 44.8594 11.1797C45.1172 11.4375 45.2695 11.7539 45.3164 12.1289C45.4336 13.207 45.4805 14.2852 45.457 15.3633C45.457 16.4414 45.4219 17.5195 45.3516 18.5977C45.3047 19.6758 45.2578 20.7539 45.2109 21.832C45.1875 22.9102 45.1992 23.9883 45.2461 25.0664C45.2695 25.5117 45.1289 25.8516 44.8242 26.0859C44.543 26.2969 44.2266 26.4023 43.875 26.4023C43.5234 26.4023 43.1953 26.2969 42.8906 26.0859C42.6094 25.8516 42.457 25.5117 42.4336 25.0664C41.0977 25.6289 39.6797 25.957 38.1797 26.0508C36.6797 26.1211 35.25 25.8516 33.8906 25.2422ZM34.1367 17.6133C33.9961 18.0352 33.8672 18.5156 33.75 19.0547C33.6328 19.5938 33.5977 20.1094 33.6445 20.6016C33.6914 21.0938 33.8438 21.5508 34.1016 21.9727C34.3594 22.3711 34.7812 22.6523 35.3672 22.8164C36.5625 23.1914 37.7578 23.2969 38.9531 23.1328C40.1719 22.9688 41.3086 22.5469 42.3633 21.8672C42.457 20.7188 42.5273 19.6055 42.5742 18.5273C42.6445 17.4492 42.668 16.3594 42.6445 15.2578C42.2461 15 41.8359 14.7773 41.4141 14.5898C41.0156 14.3789 40.5703 14.2383 40.0781 14.168C39.5859 14.0977 39.0586 14.0508 38.4961 14.0273C37.957 13.9805 37.4297 13.9805 36.9141 14.0273C36.8672 14.0273 36.7383 14.0625 36.5273 14.1328C36.3398 14.1797 36.2344 14.2148 36.2109 14.2383C35.9766 14.3555 35.7656 14.543 35.5781 14.8008C35.2734 15.2227 35.0039 15.6797 34.7695 16.1719C34.5352 16.6406 34.3242 17.1211 34.1367 17.6133ZM52.6641 36.3164C52.6875 36.7617 52.5586 37.0898 52.2773 37.3008C52.0195 37.5352 51.7148 37.6523 51.3633 37.6523C51.0117 37.6523 50.6836 37.5352 50.3789 37.3008C50.0742 37.0898 49.9102 36.7617 49.8867 36.3164C49.6289 32.5664 49.4766 28.8281 49.4297 25.1016C49.3828 21.3516 49.2773 17.6016 49.1133 13.8516C48.7852 13.3359 48.7617 12.8438 49.043 12.375C49.0195 12.1172 48.9961 11.8828 48.9727 11.6719C48.9727 11.4375 48.9609 11.1914 48.9375 10.9336C48.9141 10.5117 49.0312 10.1953 49.2891 9.98438C49.5469 9.75 49.8398 9.62109 50.168 9.59766C50.5195 9.57422 50.8477 9.66797 51.1523 9.87891C51.457 10.0664 51.6445 10.3594 51.7148 10.7578C52.1133 10.5703 52.4883 10.3945 52.8398 10.2305C53.2148 10.0664 53.6016 9.90234 54 9.73828C54.3281 9.59766 54.6914 9.46875 55.0898 9.35156C55.4883 9.21094 55.8984 9.10547 56.3203 9.03516C56.7422 8.96484 57.1523 8.92969 57.5508 8.92969C57.9727 8.92969 58.3594 9 58.7109 9.14062C59.4141 9.42188 59.9883 9.84375 60.4336 10.4062C60.9023 10.9688 61.2891 11.5898 61.5938 12.2695C61.875 12.9258 62.1445 13.5938 62.4023 14.2734C62.6602 14.9297 62.8008 15.6094 62.8242 16.3125C62.8477 17.0391 62.7422 17.7188 62.5078 18.3516C62.2734 18.9844 61.9453 19.5586 61.5234 20.0742C61.125 20.5898 60.6445 21.0469 60.082 21.4453C59.5195 21.8438 58.9219 22.1836 58.2891 22.4648C57.6094 22.7695 56.9062 23.0391 56.1797 23.2734C55.4531 23.5078 54.7148 23.6602 53.9648 23.7305C53.6367 23.7773 53.3203 23.7656 53.0156 23.6953C52.7344 23.625 52.4648 23.5312 52.207 23.4141C52.2539 25.5938 52.3008 27.75 52.3477 29.8828C52.418 32.0156 52.5234 34.1602 52.6641 36.3164ZM51.9258 13.7812C51.9727 14.8594 52.0078 15.9375 52.0312 17.0156C52.0547 18.0703 52.0898 19.1367 52.1367 20.2148C52.2773 20.3086 52.418 20.4023 52.5586 20.4961C52.6992 20.5664 52.8516 20.6484 53.0156 20.7422C53.2031 20.8594 53.3555 20.9297 53.4727 20.9531C53.5898 20.9531 53.7773 20.9297 54.0352 20.8828C54.5508 20.7656 55.0664 20.6484 55.582 20.5312C56.0977 20.3906 56.5898 20.2031 57.0586 19.9688C57.5039 19.7578 57.9258 19.5352 58.3242 19.3008C58.7227 19.043 59.0859 18.7148 59.4141 18.3164C59.625 18.0586 59.7891 17.7656 59.9062 17.4375C60.0234 17.0859 60.0586 16.7109 60.0117 16.3125C59.9883 15.8438 59.8711 15.3633 59.6602 14.8711C59.4727 14.3789 59.2852 13.9219 59.0977 13.5C58.9805 13.2891 58.8633 13.0781 58.7461 12.8672C58.6523 12.6328 58.5352 12.4219 58.3945 12.2344C58.1836 12.0234 58.0195 11.8945 57.9023 11.8477C57.2461 11.8008 56.6719 11.8359 56.1797 11.9531C55.6875 12.0703 55.1953 12.2344 54.7031 12.4453C54.2344 12.6328 53.7656 12.8438 53.2969 13.0781C52.8281 13.3125 52.3711 13.5469 51.9258 13.7812ZM82.3008 17.5078C82.1836 18.9375 81.7617 20.2148 81.0352 21.3398C80.3086 22.4414 79.3477 23.3789 78.1523 24.1523C77.3555 24.6445 76.5 25.0898 75.5859 25.4883C74.6719 25.8867 73.7578 26.1914 72.8438 26.4023C72.0234 26.5898 71.2148 26.6719 70.418 26.6484C69.6445 26.625 68.8594 26.5664 68.0625 26.4727C67.875 26.6836 67.6406 26.8242 67.3594 26.8945C67.1016 26.9883 66.8438 27 66.5859 26.9297C66.0469 26.7891 65.7188 26.4492 65.6016 25.9102C65.3203 25.6289 65.1797 25.2891 65.1797 24.8906C65.1797 24.375 65.4141 23.9648 65.8828 23.6602C66.0234 22.7227 66.1289 21.7852 66.1992 20.8477C66.293 19.9102 66.3633 18.9609 66.4102 18C66.4805 16.875 66.5391 15.7617 66.5859 14.6602C66.6328 13.5586 66.6445 12.4453 66.6211 11.3203C66.6211 10.6172 66.5977 9.89062 66.5508 9.14062C66.5039 8.39062 66.4805 7.65234 66.4805 6.92578C66.4805 6.17578 66.5156 5.4375 66.5859 4.71094C66.6797 3.98438 66.8555 3.28125 67.1133 2.60156C66.9961 2.22656 67.0195 1.83984 67.1836 1.44141C67.3477 1.04297 67.6641 0.796875 68.1328 0.703125C68.4141 0.398438 68.7422 0.257813 69.1172 0.28125C69.5156 0.304687 69.8438 0.433594 70.1016 0.667969C71.25 0.761719 72.3633 0.984375 73.4414 1.33594C74.543 1.66406 75.5508 2.20312 76.4648 2.95312C77.5898 3.84375 78.4922 4.92188 79.1719 6.1875C79.8516 7.42969 80.4023 8.71875 80.8242 10.0547C81.0117 10.6406 81.1992 11.2383 81.3867 11.8477C81.5977 12.457 81.7734 13.0781 81.9141 13.7109C82.0781 14.3438 82.1953 14.9766 82.2656 15.6094C82.3359 16.2422 82.3477 16.875 82.3008 17.5078ZM76.4297 21.9023C76.7344 21.7148 77.0039 21.5273 77.2383 21.3398C77.4961 21.1523 77.7539 20.9297 78.0117 20.6719C78.2227 20.4375 78.3867 20.25 78.5039 20.1094C78.6211 19.9688 78.7617 19.7578 78.9258 19.4766C79.3242 18.6562 79.5117 17.7305 79.4883 16.6992C79.4883 16.1133 79.4414 15.5742 79.3477 15.082C79.2539 14.5664 79.1133 13.9922 78.9258 13.3594C78.7383 12.7031 78.5391 12.0586 78.3281 11.4258C78.1406 10.7695 77.918 10.1367 77.6602 9.52734C77.4727 9.01172 77.2148 8.46094 76.8867 7.875C76.582 7.26562 76.2656 6.76172 75.9375 6.36328C75.1172 5.37891 74.1914 4.67578 73.1602 4.25391C72.1289 3.80859 71.0039 3.55078 69.7852 3.48047C69.5273 4.13672 69.3633 4.82813 69.293 5.55469C69.2461 6.25781 69.2344 6.97266 69.2578 7.69922C69.2812 8.42578 69.3164 9.15234 69.3633 9.87891C69.4336 10.6055 69.457 11.3086 69.4336 11.9883C69.3398 13.9805 69.2461 15.9492 69.1523 17.8945C69.082 19.8398 68.918 21.7969 68.6602 23.7656C69.082 23.8125 69.5039 23.8477 69.9258 23.8711C70.3711 23.8945 70.8047 23.8828 71.2266 23.8359C72.1172 23.7422 73.0078 23.5195 73.8984 23.168C74.8125 22.793 75.6562 22.3711 76.4297 21.9023ZM88.0664 25.2422C87.2695 24.8906 86.6367 24.4102 86.168 23.8008C85.7227 23.168 85.4062 22.4766 85.2188 21.7266C85.0547 20.9766 85.0078 20.2031 85.0781 19.4062C85.1484 18.5859 85.3125 17.8008 85.5703 17.0508C85.7812 16.4648 86.0156 15.8555 86.2734 15.2227C86.5547 14.5898 86.8828 14.0039 87.2578 13.4648C87.6328 12.9258 88.0781 12.4688 88.5938 12.0938C89.1094 11.6953 89.7188 11.4375 90.4219 11.3203C91.1484 11.2031 91.875 11.168 92.6016 11.2148C93.3516 11.2383 94.0898 11.3086 94.8164 11.4258C95.1445 11.4727 95.4609 11.5547 95.7656 11.6719C96.0703 11.7656 96.375 11.8711 96.6797 11.9883C96.7031 11.6367 96.8555 11.3438 97.1367 11.1094C97.4414 10.875 97.7578 10.7578 98.0859 10.7578C98.4844 10.7578 98.8008 10.8984 99.0352 11.1797C99.293 11.4375 99.4453 11.7539 99.4922 12.1289C99.6094 13.207 99.6562 14.2852 99.6328 15.3633C99.6328 16.4414 99.5977 17.5195 99.5273 18.5977C99.4805 19.6758 99.4336 20.7539 99.3867 21.832C99.3633 22.9102 99.375 23.9883 99.4219 25.0664C99.4453 25.5117 99.3047 25.8516 99 26.0859C98.7188 26.2969 98.4023 26.4023 98.0508 26.4023C97.6992 26.4023 97.3711 26.2969 97.0664 26.0859C96.7852 25.8516 96.6328 25.5117 96.6094 25.0664C95.2734 25.6289 93.8555 25.957 92.3555 26.0508C90.8555 26.1211 89.4258 25.8516 88.0664 25.2422ZM88.3125 17.6133C88.1719 18.0352 88.043 18.5156 87.9258 19.0547C87.8086 19.5938 87.7734 20.1094 87.8203 20.6016C87.8672 21.0938 88.0195 21.5508 88.2773 21.9727C88.5352 22.3711 88.957 22.6523 89.543 22.8164C90.7383 23.1914 91.9336 23.2969 93.1289 23.1328C94.3477 22.9688 95.4844 22.5469 96.5391 21.8672C96.6328 20.7188 96.7031 19.6055 96.75 18.5273C96.8203 17.4492 96.8438 16.3594 96.8203 15.2578C96.4219 15 96.0117 14.7773 95.5898 14.5898C95.1914 14.3789 94.7461 14.2383 94.2539 14.168C93.7617 14.0977 93.2344 14.0508 92.6719 14.0273C92.1328 13.9805 91.6055 13.9805 91.0898 14.0273C91.043 14.0273 90.9141 14.0625 90.7031 14.1328C90.5156 14.1797 90.4102 14.2148 90.3867 14.2383C90.1523 14.3555 89.9414 14.543 89.7539 14.8008C89.4492 15.2227 89.1797 15.6797 88.9453 16.1719C88.7109 16.6406 88.5 17.1211 88.3125 17.6133ZM116.332 10.3711C116.66 10.5586 116.883 10.8398 117 11.2148C117.117 11.5898 117.059 11.9414 116.824 12.2695C116.238 13.1133 115.793 14.0391 115.488 15.0469C115.207 16.0547 114.879 17.0391 114.504 18C114.105 19.0312 113.66 20.0273 113.168 20.9883C112.699 21.9492 112.195 22.9219 111.656 23.9062C111.609 24.0234 111.551 24.1289 111.48 24.2227C111.434 24.293 111.387 24.3867 111.34 24.5039C111.434 24.8789 111.375 25.2188 111.164 25.5234C110.977 25.8047 110.719 26.0039 110.391 26.1211C109.43 27.7617 108.457 29.3789 107.473 30.9727C106.512 32.5898 105.551 34.2188 104.59 35.8594C104.355 36.2578 104.051 36.4805 103.676 36.5273C103.324 36.5742 102.996 36.5039 102.691 36.3164C102.387 36.1523 102.164 35.8945 102.023 35.543C101.883 35.2148 101.93 34.8516 102.164 34.4531C103.148 32.7656 104.145 31.0898 105.152 29.4258C106.16 27.7852 107.156 26.1211 108.141 24.4336C107.086 22.5352 106.078 20.625 105.117 18.7031C104.156 16.7578 103.172 14.8242 102.164 12.9023C101.953 12.5039 101.918 12.1406 102.059 11.8125C102.223 11.4609 102.445 11.2031 102.727 11.0391C103.031 10.8516 103.359 10.7812 103.711 10.8281C104.086 10.875 104.379 11.0977 104.59 11.4961C105.457 13.1836 106.312 14.8711 107.156 16.5586C108 18.2227 108.867 19.8867 109.758 21.5508C110.625 19.957 111.398 18.2812 112.078 16.5234C112.43 15.5625 112.758 14.5898 113.062 13.6055C113.391 12.5977 113.848 11.6836 114.434 10.8633C114.645 10.5352 114.926 10.3242 115.277 10.2305C115.629 10.1133 115.98 10.1602 116.332 10.3711Z" fill="#FF8D28"/>
</svg>
